<svg xmlns="http://www.w3.org/2000/svg" width="51.853" height="24.131" viewBox="0 0 51.852501 24.131251"><path d="M38.604 6.156l1.075 2.15h-1.934l.86-2.15z" fill="#050f38"/><path d="M38.604 6.156l-.859 2.15h1.934l-1.075-2.15z" fill="#050f38"/><path d="M46.771 6.156h-2.365v1.507h2.365v1.072h-2.365v1.935h-1.289V5.081h3.654v1.075zm0 13.538h-11.82v-6.659h11.82v6.659zM31.082 5.51H30.01V3.576h1.073v1.935zm0 4.084H30.01V7.662h1.073v1.933zm0 4.084H30.01v-1.935h1.073v1.935zm0 4.08H30.01V15.61h1.073v2.148zm0 3.868H30.01v-1.933h1.073v1.933zm6.88-16.546h1.503l2.792 5.589h-1.503l-.647-1.29H37.1l-.645 1.29h-1.289l2.795-5.589zM1.43 2.29L1 23.131h49.852V1L1.43 2.29z" fill="#050f38"/><path d="M37.1 15.612v2.794h.86v-3.867h-.86l-1.504 1.286.43.647 1.074-.86zM44.192 18.62c.859 0 1.504-.43 1.719-.86l-.647-.644c-.213.431-.427.644-1.072.644-.646 0-1.289-.43-1.289-1.288 0-.646.643-1.29 1.289-1.29.43 0 .859.215 1.072.644l.647-.644c-.432-.431-1.074-.644-1.72-.644-1.288 0-2.15.86-2.15 1.934 0 1.288 1.077 2.148 2.15 2.148M40.108 15.182c.43 0 .645.215.645.43 0 .214-.43.643-.645.86l-1.289 1.288v.646h2.795v-.646h-1.721l.86-.86c.43-.233.861-.858.861-1.288 0-.645-.646-1.074-1.506-1.074-.429 0-1.074.213-1.504.43l.645.644c.215-.215.43-.43.859-.43M19.05 10.453l-3.869 1.721v-4.51c0-.648-1.073-.648-1.073 0v5.154c0 .645.645.645 1.073.429 0 0 3.44-1.504 4.3-1.95.644-.196.214-1.273-.43-.844" fill="#050f38"/><path d="M19.48 11.297c-.86.446-4.298 1.95-4.298 1.95-.428.216-1.073.216-1.073-.43V7.664c0-.648 1.073-.648 1.073 0v4.511l3.868-1.721c.645-.429 1.076.647.43.844m-3.438-7.074C11.96 4.438 7.66 6.802 7.017 11.1c-.86 4.512 2.578 8.165 7.092 8.81 4.296.644 8.163-1.933 8.81-6.447.645-4.296-2.365-9.24-6.877-9.24" fill="#fff"/></svg>