<svg xmlns="http://www.w3.org/2000/svg" width="18.786" height="28.62" viewBox="0 0 18.786329 28.620001"><path d="M15.549 27.391c0 .226-8.502.229-8.502.229-.668 0-1.565-.448-2.013-1.116 0-.227-3.807-8.949-3.807-8.949L1 6.816l.222-5.366v-.449h1.34L3.46 1c.671 0 2.015 2.012 2.236 2.459l.225.223v.225c.225 0 .225 0 .225.224v.224c0 1.117-.896 2.014-1.344 2.461 0 .67-.669 3.355.453 6.488l8.053-.003.672.894-.224 1.119-7.381 1.791.896 1.325s8.947-.658 9.619-.005c1.79 2.479.673 6.954-1.34 8.966" fill="#050f38"/></svg>