<svg xmlns="http://www.w3.org/2000/svg" width="21.293" height="19.343" viewBox="0 0 21.292502 19.343121"><path d="M12.95 7.022h-.005l-.03.49.315-.09-.28-.4z" fill="#051039"/><path d="M13.608 11.425l-.365-1.264 2.063-.596.365 1.265-2.063.595zm-.507-1.752l2.064-.597.056.198-2.061.596-.059-.197zm-.109-.38l2.063-.595.057.198-2.062.595-.058-.197zm-.182-.632l2.062-.596.108.373-2.063.596-.107-.373zm-.193-.555l.11-1.343.273-.08.803 1.08-.276.08-.17-.243-.452.131-.018.298-.27.077zm1.794-1.831l.065.224-.585.17.081.28.506-.148.06.207-.507.147.145.5-.266.078-.35-1.212.851-.246zm2.97 7.03c-.056-.149-2.844-9.16-2.844-9.16L10.91 5.193l2.431 8.412c.136.47.286.641.427.688.002 0 .005 0 .008.002l.001.001-.009-.003c.072.022.14.015.203-.003l3.41-.985" fill="#051039"/><path d="M7.371 4.74l-4.545.007C1.821 4.748 1 5.603 1 6.649l.012 9.795c.002 1.045.827 1.9 1.832 1.9l15.622-.02c1.005 0 1.828-.857 1.826-1.902l-.012-9.796c-.001-1.045-.825-1.9-1.831-1.898l-2.898.004c1.071 3.464 2.483 8.017 2.579 8.305l.296.794-.825.238c-.22.063-1.649.475-2.587.747l-.823.238a1.125 1.125 0 0 1-.642.004c-.604-.18-.844-.79-.972-1.232l-2.43-8.413-.196-.676-.904.002" fill="#051039"/><path d="M9.044 5.279V2.738l2.873-.074v1.762l1.552-.512v-1.25c0-.998-.665-1.664-1.552-1.664H9.034c-.887 0-1.664.666-1.664 1.664V4.99" fill="#050f38"/></svg>