<svg xmlns="http://www.w3.org/2000/svg" width="20.641" height="25.16" viewBox="0 0 20.641251 25.16038"><path d="M18.324 9.474l-4.144.565-.186-1.506c0-.754-.566-1.318-1.133-1.694 0 .188 0 .376.192.753v1.127c-.192.174-.378.566-.944.755v.755l-4.519.563-.187-.753c-.188-.376-.378-.754-.378-1.146v-.55c-.187.376-.375.55-.565.55-.376.392-.752.392-1.13.392l.189 1.884L1 11.924 2.131 24.16l17.51-1.693-1.317-12.993z" fill="#050f38"/><path d="M12.485 7.591c-.187-.942-.376-2.071-.94-3.012 0-.189-.187-.393-.187-.754-.19-.189-.19-.189-.19-.754C10.98 2.131 10.98 1 10.98 1H7.403v2.45c0 .375-.188.736-.378 1.129-.189.376-.375.752-.565.941-.376.565-.564 1.319-.941 1.883-.189.188-.375.565-.565.753 0 .188-.186.377-.186.564h.186c.19.174.565.174.754 0 .376 0 .566-.187.752-.376.19-.188.376-.376.565-.565 0-.188.19-.376.378-.563v1.882c.187.376.187.566.566.755.186.186.375.186.752.186h.942c.376-.186.94-.375 1.318-.565.187 0 .564-.189.752-.376.188 0 .565-.204.752-.378.19-.376.19-.752 0-1.129 0-.375.19.753 0 0" fill="#050f38"/></svg>