<svg xmlns="http://www.w3.org/2000/svg" width="55.505" height="25.655" viewBox="0 0 55.505002 25.655001"><path d="M47.414 19.713c1.073 0 1.504-.43 1.934-.858l-.645-.648c-.216.431-.645.648-1.289.648-.646 0-1.29-.648-1.29-1.292 0-.86.644-1.29 1.29-1.29.43 0 .858.218 1.073.43l.646-.643c-.43-.43-.861-.86-1.719-.86a2.385 2.385 0 0 0-2.365 2.363c0 1.292 1.075 2.15 2.365 2.15M42.9 16.06c.431 0 .646.214.646.431 0 .429-.215.858-.43 1.073l-1.503 1.29v.86h3.007v-.86H42.9l.86-.859c.215-.431.86-.879.86-1.504 0-.646-.645-1.291-1.504-1.291-.646 0-1.288.43-1.503.645l.428.646c.215-.217.644-.431.86-.431M41.396 6.372l1.29 2.382h-2.362l1.072-2.382z" fill="#050f38"/><path d="M41.396 6.372l-1.072 2.382h2.361l-1.289-2.382z" fill="#050f38"/><path d="M50.207 6.372H47.63v1.522h2.362v1.29H47.63v2.148h-1.505V5.1h4.083v1.272zm0 14.63H37.312v-7.09h12.895v7.09zM33.232 5.746h-1.075v-2.15h1.075v2.15zm0 4.298h-1.075v-2.15h1.075v2.15zm0 4.512h-1.075v-2.149h1.075v2.15zm0 4.298h-1.075v-2.152h1.075v2.152zm0 4.297h-1.075v-2.149h1.075v2.15zM40.752 5.1h1.505l3.008 6.232h-1.504l-.645-1.503h-3.224l-.645 1.503h-1.503L40.752 5.1zM1.43 2.309L1 24.655h53.505V1L1.429 2.309z" fill="#050f38"/><path d="M39.678 16.49v3.223h1.073v-4.297h-1.073l-1.504 1.287.431.647 1.073-.86z" fill="#050f38"/><path d="M17.544 5.316h-1.288v-1.72l-.646.43-3.222 2.347-.43.447.43.215 3.008 2.58.644.643.216-.86V8.11c.43-.216.86-.216 1.288-.216 3.01 0 5.159 2.579 5.159 5.801 0 3.008-2.58 5.588-5.588 5.588-3.009 0-6.016-3.009-6.016-6.018v-.429h-2.58v.647c0 4.512 4.084 8.378 8.596 8.378a8.162 8.162 0 0 0 8.165-8.166c0-4.726-3.437-8.379-7.736-8.379" fill="#fff"/><path d="M17.115 15.2c-.215.43-1.075.646-1.718.646-.862 0-1.72-.215-1.934-.647v-.643c.215.43 1.072.643 1.934.643.643 0 1.503-.212 1.718-.643v.643z" fill="#fff"/><path d="M15.397 14.987c-1.075 0-1.934-.431-1.934-.86 0-.431.859-.644 1.934-.644.858 0 1.718.213 1.718.644 0 .429-.86.86-1.718.86M20.123 14.987c-.215.212-.859.644-1.719.644-.43 0-.645-.215-.86-.215v-.647c.215.218.43.218.86.218.86 0 1.504-.218 1.72-.646v.646z" fill="#fff"/><path d="M20.123 14.126c-.215.43-.859.644-1.719.644-.43 0-.645 0-.86-.214v-.43h.86c.86 0 1.504-.215 1.72-.643v.643z" fill="#fff"/><path d="M20.123 13.266c-.215.43-.859.646-1.719.646-.43 0-.645 0-1.072-.216 0-.213-.431-.43-.861-.43v-.644c.43.43 1.072.644 1.933.644.86 0 1.504-.214 1.72-.644v.644z" fill="#fff"/><path d="M20.123 12.408c-.215.428-.859.645-1.719.645-.86 0-1.503-.217-1.933-.645v-.432c.43.215 1.072.432 1.933.432.86 0 1.504-.217 1.72-.432v.432z" fill="#fff"/><path d="M18.404 12.191c-1.072 0-1.933-.446-1.933-.858 0-.432.861-.86 1.933-.86.86 0 1.72.428 1.72.86 0 .412-.86.858-1.72.858" fill="#fff"/></svg>