<svg xmlns="http://www.w3.org/2000/svg" width="22.01" height="40.945" viewBox="0 0 22.01 40.944802"><path d="M11.418 8.151c1.918 0 3.287-1.643 3.287-3.562 0-1.919-1.644-3.838-3.562-3.563C9.499 1.3 7.579 2.67 7.579 4.59c0 1.919 1.92 3.562 3.839 3.562m9.592 11.237l-6.579-9.593S13.062 8.7 11.142 8.7C9.224 8.7 8.13 9.796 8.13 9.796L1 19.937l1.92 2.193 5.481-6.304v7.4l9.32 16.719L21.01 38.3l-6.853-13.704V16.1l5.483 5.754 1.37-2.466z" fill="#ed0000"/><path d="M10.87 29.53L4.293 39.946l-3.291-1.643 6.577-13.156 3.293 4.385z" fill="#ed0000"/></svg>